# xmcd
#
# Track frame offsets: 
#        150
#        13979
#        22972
#        35621
#        47686
#        60191
#        71960
#        80573
#        92383
#        103106
#        115375
#        129855
#        146132
#        159664
#        176255
#
# Disc length: 2568 seconds
#
# Revision: 5
# Processed by: cddbd v1.5.2PL0 Copyright (c) Steve Scherf et al.
# Submitted via: ExactAudioCopy v0.99pb5
#
DISCID=c40a060f
DTITLE=Various Artist - Classic Country - TL 626-33 - Duets - CD 1
DYEAR=2002
DGENRE=Country
TTITLE0=Johnny Cash and June Carter - It ain't me babe
TTITLE1=Porter Wagoner and Dolly Parton - We'll get ahead someday
TTITLE2=Jerry Reed and Seidina Reed - You know what
TTITLE3=Waylon Jennings and Anita Carter - I got you
TTITLE4=Bill Anderson and Jan Howard - For loving you
TTITLE5=Johnny Duncan and June Stearns - Jackson ain't a very big town
TTITLE6=Skeeter Davis and Bobby Bare - A dear John letter
TTITLE7=Charlie Louvin and Melba Montgomery - Did you ever
TTITLE8=Tammy Wynette and George Jones - Take me
TTITLE9=Merle Haggard and Leona Williams - The bull and the beaver
TTITLE10=Charlie Rich and Janie Fricke - On my knees
TTITLE11=Emmylou Harris and Don Williams - If I needed you
TTITLE12=Charlie McLain and Mickey Gilley - Paradise tonight
TTITLE13=Kenny Rogers and Kim Carnes - Don't fall in love with a dreamer
TTITLE14=Louise Mandrell and R. C. Bannon - Reunited
EXTD=YEAR: 2002
EXTT0=
EXTT1=
EXTT2=
EXTT3=
EXTT4=
EXTT5=
EXTT6=
EXTT7=
EXTT8=
EXTT9=
EXTT10=
EXTT11=
EXTT12=
EXTT13=
EXTT14=
PLAYORDER=
